<svg width="400" height="400" viewBox="0 0 400 400" fill="none" xmlns="http://www.w3.org/2000/svg">
<path d="M265.043 286.774C271.198 286.774 276.359 284.68 280.525 280.493C284.691 276.306 286.774 271.192 286.774 265.15C286.774 259.107 284.691 253.993 280.525 249.806C276.359 245.619 271.198 243.526 265.043 243.526C259.03 243.526 253.941 245.619 249.775 249.806C245.609 253.993 243.526 259.107 243.526 265.15C243.526 271.192 245.609 276.306 249.775 280.493C253.941 284.68 259.03 286.774 265.043 286.774ZM199.658 221.389C205.813 221.389 210.974 219.295 215.14 215.109C219.306 210.922 221.389 205.807 221.389 199.765C221.389 193.723 219.306 188.608 215.14 184.421C210.974 180.234 205.813 178.141 199.658 178.141C193.646 178.141 188.556 180.234 184.39 184.421C180.224 188.608 178.141 193.723 178.141 199.765C178.141 205.807 180.224 210.922 184.39 215.109C188.556 219.295 193.646 221.389 199.658 221.389ZM134.957 156.474C140.97 156.474 146.059 154.381 150.225 150.194C154.391 146.007 156.474 140.893 156.474 134.85C156.474 128.808 154.391 123.694 150.225 119.507C146.059 115.32 140.97 113.226 134.957 113.226C128.802 113.226 123.642 115.32 119.475 119.507C115.309 123.694 113.226 128.808 113.226 134.85C113.226 140.893 115.309 146.007 119.475 150.194C123.642 154.381 128.802 156.474 134.957 156.474ZM91.0255 333.333C84.1986 333.333 78.432 330.98 73.7259 326.274C69.0198 321.568 66.6667 315.801 66.6667 308.975V91.0254C66.6667 84.1984 69.0198 78.4319 73.7259 73.7258C78.432 69.0197 84.1986 66.6666 91.0255 66.6666H308.975C315.802 66.6666 321.568 69.0197 326.274 73.7258C330.98 78.4319 333.333 84.1984 333.333 91.0254V308.975C333.333 315.801 330.98 321.568 326.274 326.274C321.568 330.98 315.802 333.333 308.975 333.333H91.0255ZM91.0255 319.231H308.975C311.539 319.231 313.889 318.162 316.026 316.026C318.163 313.889 319.231 311.539 319.231 308.975V91.0254C319.231 88.4612 318.163 86.1108 316.026 83.9741C313.889 81.8375 311.539 80.7691 308.975 80.7691H91.0255C88.4613 80.7691 86.1109 81.8375 83.9742 83.9741C81.8376 86.1108 80.7692 88.4612 80.7692 91.0254V308.975C80.7692 311.539 81.8376 313.889 83.9742 316.026C86.1109 318.162 88.4613 319.231 91.0255 319.231Z" fill="white"/>
</svg>
